<?xml version="1.0" encoding="utf-8"?>
<!-- Generator: Adobe Illustrator 24.0.0, SVG Export Plug-In . SVG Version: 6.00 Build 0)  -->
<svg version="1.1" xmlns="http://www.w3.org/2000/svg" xmlns:xlink="http://www.w3.org/1999/xlink" x="0px" y="0px"
	 viewBox="0 0 511.9 108.7" style="enable-background:new 0 0 511.9 108.7;" xml:space="preserve">
<style type="text/css">
	.st0{display:none;}
	.st1{display:inline;fill:#030202;}
	.st2{fill:#FAFAFA;}
	.st3{fill:#EF7222;}
	.st4{fill:#030202;}
</style>
<g id="Capa_2" class="st0">
	<rect x="-50" y="-78.3" class="st1" width="612" height="265.3"/>
</g>
<g id="Capa_1">
	<g>
		<path class="st2" d="M143.8,86.2c-0.5,0.6-1,1.3-1.4,1.9c-1.1,1.2-2.2,2.5-3.3,3.7c-2,1.3-3.5,3.2-5.6,4.4c-2-1.9-4.6-1.3-7.3-1.4
			c0.9,0.9,1.5,1.6,2.1,2.2c1.8,1.9,1.8,1.9-0.2,3.4c-10.3,6.4-21.4,9-33.5,7.9c-10.9-1-20.7-4.7-29.5-11.1
			c-1.1-0.8-2.1-1.7-3.2-2.6c-0.4-0.5-0.9-0.9-1.3-1.4c-0.5-0.6-1.6-1.2-1.3-2c0.3-0.7,1.5-0.5,2.2-0.3c2.8,0.6,5.2-1.3,7.8-1.2
			c0.2,0,0.5-0.4,0.7-0.6c0.4-0.6,0.8-1.3,1.3-2c0.6-0.9,0.1-0.9-0.6-0.9c-2.5,0-4.9,0-7.4,0.1c-0.4,0-0.7,0.1-1,0.3
			c-1.6,1-3.3,0.4-5,0.4c-2.3,0.1-2.9-1.4-4-2.7c-0.5-0.6-0.9-1.3-1.4-1.9c-1.6-2.7-3.2-5.5-4.4-8.4c-0.7-2.3-1.4-4.6-2.1-6.9
			c0.2-1-0.7-2.2,0-2.8c0.6-0.5,1.8-0.2,2.8-0.2c2-0.1,4-0.2,6-0.2c1.5,0,1.4-1.2,1.5-2.1c0.1-0.9-0.2-1.9-1.3-2
			c-1.1-0.1-2.2-0.2-2.6-1.4c-0.6-1.6,0.1-3.2,0.6-4.8c0.1-0.4,0.5-0.3,0.8-0.3c1.3-0.1,2.9-1.6,3.1-2.8c0.1-0.8-0.6-0.5-1-0.5
			c-3.6,0-7.3,0-10.9,0c-1,0-1.4-0.3-1.2-1.3c0.8-4.4,2-8.6,3.7-12.8c0.2-0.4,0.3-0.8,0.5-1.2c1.7-3.3,3.5-6.5,5.6-9.6
			c0.7-0.9,1.3-1.8,2-2.6c0.8-0.8,1.8-1.5,2.1-2.7c0.1-0.1,0.3-0.1,0.4-0.2c2.1-2.1,4-4.4,6.3-6.3c1.5-1.3,3.5-1.8,4.9-3.2
			c4.5-3.1,9.3-5.7,14.6-7.3c15.8-4.9,30.7-3.1,44.8,5.4c1.1,0.7,1.1,0.7,0.1,1.6c1.2,1,2.9,1.2,3.9,2.5c-0.7,0.3-1.7-0.1-2.2,0.9
			c0.6,0.6,1.4,0.4,2.1,0.5c1.2,0.2,1.4-0.3,0.8-1.2c0.4,0.1,0.8,0.2,1.2,0.4c0.6,0.5,1.3,1.1,1.9,1.6c1.8,1.3,3.2,2.9,4.6,4.5
			c0.3,0.3,0.9,0.7,0,1.1c-2.2,0.9-3.5,2.8-5.1,4.3c-0.3,0.3-0.5,0.7-0.8,0.7c-1.7,0-2.2,1.5-3.2,2.5c-0.2,0.2-0.5,0.4-0.3,0.6
			c0.2,0.3,0.6,0.2,0.9,0.1c2.2,0.4,4,0,5.5-1.9c1.3-1.6,3-2.8,4.5-4.2c0.5-0.5,0.9-0.7,1.5,0.1c3.1,3.9,5.5,8.1,7.2,12.8
			c0.4,1,0.1,1.1-0.8,1.1c-8.5,0-16.9,0-25.4,0.1c-0.8,0-1.2-0.2-1.7-0.9c-0.9-1.2-1.9-2.4-2.9-3.6c-0.2-0.2-0.6-0.4-0.2-0.7
			c1.7,0.3,2.8-0.2,2.9-2.1c-1.8-0.4-3.6,0.1-5.4-0.5c-1.3,0-2.4-0.5-3.5-1c-15.3-6.9-29.9-1.3-38.6,10.2c-0.4,0.5-0.7,1.1-1,1.6
			c-0.4,0.4-0.9,0.4-1.5,0.3c-2.8-0.5-5.6-0.8-8.4-1.4c-1.2-0.3-2.6-0.5-3.5-1.6c-0.8-1-1.8-1.2-2.9-1.1c-0.8,0-1.6,0-2.4,0
			c-2.6,0-2.7,0-3.4,2.9c2.8,0,5.6,0,8.4,0c0.5,0,1-0.1,1.4,0.4c1,1.1,2.3,1.4,3.7,1.4c0.7,0,1.4-0.1,2,0.4c0.1,0.5,0.2,0.9,0.3,1.4
			c0.7,0.1,1.1-0.9,1.9-0.4c-0.6,1.6-1.2,3.2-1.8,4.9c-0.4,1.1-0.4,1.9,1.1,1.6c1-0.2,0.7,0.5,0.5,1c-0.7,1.7,0.1,1.9,1.5,1.9
			c3.9-0.1,7.7,0,11.9,0c-1,1.6-1.9,2.8-2.8,4.1c-0.3,0.4-0.6,0.5-1.1,0.5c-0.4,0-0.8,0.1-1.3,0.1c-5.6,0-7.8,4.1-6.4,9.4
			c3,10.8,10.8,17,21.4,19.6c8.6,2.1,16.6,0.2,24-4.4c3.8-2.4,7-5.7,8.7-10.2c0.4-1,0.3-1.2-0.8-1.2c-7.6,0-15.2,0-22.7,0
			c-0.5,0-1,0-1.9,0c2.7-3,4.9-5.9,7-9c1.5-2.2,1.5-2.1-0.5-3.9c-2-1.8-4.3-3.4-6.3-5.6c0.9,0,1.5,0,2.1,0c15,0,30-0.1,45-0.1
			c1.9,0,3.8,0,5.7,0.6c-1.7,0.6-3.5,0.4-5.3,0.5c-1.2,0.1-2.4,0.3-3.1,1.2c-1.5,2-3.6,2.3-5.9,2.1c-1.8-0.1-2.7,1.1-4,2.4
			c2,0,3.6-0.2,5.2,0c3,0.4,5.9-1.3,9-0.4c0.9,0.3,2.3-0.5,2.6,0.3c0.4,0.8-0.9,1.6-1.4,2.5c-0.4,0.7-1.2,1.8-0.4,2.2
			c1,0.6,1.4-0.7,1.9-1.4c0.5-0.8,0.7-1.8,1.7-2.2c0.3,0.8,0,1.5,0.1,2.3c-0.8,4.9-1.7,9.8-3.6,14.4c-0.2,0.4-0.3,0.9-0.9,1
			c-2.1,0.5-4.1,1.4-6.3,1.1c-1.4-0.2-2.4,0.2-3.1,1.5c-0.4,0.7-0.9,1.3-1.6,2.2c2.2,0,4.1,0,6,0c0.6,0,1.2,0,1.7,0
			c1.2-0.1,1.6,0.2,1,1.4C145.8,83.3,144.8,84.8,143.8,86.2z"/>
		<path class="st2" d="M237.8,21c-5.2,0-10.3,0-15.5,0c-3.4,0-3.8,0.7-4.3,3.5c-1.1,6.5-2.4,12.9-3.8,19.3c-0.4,1.7,0.1,2.4,2,2.4
			c3.6,0.1,7.2,0,10.7,0c3,0,6,0,9,0.1c1.4,0,1.9-0.4,2-1.7c0.1-1.4,0.4-2.7,0.8-4c0.3-1.1,0.1-1.5-1.1-1.5c-3.6,0.1-7.3,0-10.9,0
			c-0.9,0-1.4-0.1-1.2-1.3c0.6-2.8,1.1-5.5,1.7-8.3c0.1-0.7,0.5-0.9,1.2-0.9c8.3,0,16.6,0,24.9,0c1,0,1.1,0.4,0.9,1.2
			c-1.3,6.4-2.5,12.8-3.8,19.2c-1,4.7-6.7,9.2-11.8,9.2c-10.1,0.1-20.2,0.1-30.3,0c-5.4,0-9.4-5-8.3-10.5c1.9-9.7,3.9-19.3,6-29
			c1.2-5.5,6.6-9.6,12.2-9.5c12.5,0,25.1,0.1,37.6,0.1c2,0,2,0,1.6,1.9c-0.6,2.9-1.3,5.8-1.8,8.6c-0.2,1-0.6,1.1-1.5,1.1
			C248.6,20.9,243.2,21,237.8,21C237.8,21,237.8,21,237.8,21z"/>
		<path class="st2" d="M482.8,27.5c3.7,0,7.5,0,11.2,0c0.8,0,1.2-0.2,1.3-1.1c1-5.2,2.1-10.4,3.1-15.6c0.2-1,0.5-1.5,1.7-1.5
			c3.6,0.1,7.2,0.1,10.7,0c1.1,0,1.3,0.4,1.1,1.4c-3,14.3-6,28.6-8.9,42.9c-0.3,1.2-0.6,2.5-0.7,3.7c-0.1,0.7-0.4,0.8-1,0.8
			c-3.9,0-7.8,0-11.7,0c-0.8,0-1-0.2-0.8-1c1.2-5.5,2.3-11,3.5-16.5c0.2-1.1,0-1.2-1-1.2c-7.3,0-14.6,0-21.9,0c-1,0-1.4,0.3-1.6,1.2
			c-1.1,5.4-2.2,10.8-3.3,16.2c-0.2,1-0.6,1.2-1.5,1.2c-3.7,0-7.4-0.1-11,0c-1.2,0-1.2-0.5-1-1.4c3.2-15.3,6.3-30.5,9.4-45.8
			c0.2-1.2,0.6-1.7,2-1.7c3.4,0.1,6.7,0.1,10.1,0c1.4,0,1.7,0.3,1.4,1.6c-1,5-2,10-3,15c-0.2,1.1-0.2,1.5,1.2,1.5
			C475.5,27.4,479.2,27.5,482.8,27.5C482.8,27.5,482.8,27.5,482.8,27.5z"/>
		<path class="st2" d="M430.5,9.3c6.4,0,12.7,0,19.1,0c1.3,0,1.6,0.4,1.3,1.7c-0.7,2.9-1.3,5.7-1.8,8.6c-0.2,1.1-0.7,1.5-1.8,1.5
			c-9.8,0-19.6,0-29.4,0c-1.5,0-2.9-0.1-4.3,0.7c-0.7,0.4-1.1,0.8-1.3,1.6c-1.4,7.1-2.8,14.1-4.2,21.2c-0.1,0.6,0,0.9,0.6,1.2
			c0.8,0.5,1.7,0.5,2.6,0.5c10.1,0,20.1,0.1,30.2,0.1c1.3,0,1.9,0,1.4,1.7c-0.7,2.8-1.2,5.7-1.7,8.6c-0.2,1.1-0.6,1.6-1.9,1.6
			c-12.2,0-24.4,0-36.6,0c-6,0-9.9-4.6-8.7-10.4c1.9-9.8,3.9-19.5,6-29.2c1.1-5.3,6.3-9.3,11.8-9.4C418,9.2,424.3,9.2,430.5,9.3
			C430.5,9.2,430.5,9.3,430.5,9.3z"/>
		<path class="st2" d="M369.2,9.3c7.8,0,15.7,0,23.5,0c1.4,0,1.7,0.4,1.3,1.7c-0.7,2.7-1.3,5.4-1.8,8.2c-0.3,1.3-0.8,1.9-2.3,1.8
			c-4.8-0.1-9.7,0-14.5,0c-1.1,0-1.5,0.4-1.7,1.4c-2.3,11.6-4.7,23.1-7,34.7c-0.2,1-0.6,1.2-1.4,1.1c-3.7,0-7.4,0-11.1,0
			c-1.1,0-1.3-0.3-1-1.4c2.4-11.3,4.7-22.7,7.1-34c0.4-1.9,0.4-1.9-1.6-1.9c-5.1,0-10.2,0-15.3,0c-0.9,0-1.3-0.1-1.1-1.2
			c0.7-3.2,1.3-6.4,1.8-9.6c0.2-1.1,0.9-0.8,1.5-0.8C353.5,9.4,361.3,9.4,369.2,9.3C369.2,9.4,369.2,9.3,369.2,9.3z"/>
		<path class="st2" d="M282,58.2c-6.2,0-12.4,0-18.6,0c-1.4,0-2.7-0.2-3.8-1.2c-1-1-1.5-2.1-1.1-3.5c3-14.2,5.9-28.4,8.8-42.6
			c0.2-1,0.6-1.5,1.7-1.4c3.6,0.1,7.3,0,10.9,0c1,0,1.2,0.2,1,1.2c-2,9.6-4,19.3-5.9,29c-0.4,1.7-0.7,3.5-1.1,5.2
			c-0.3,1.3,0,1.6,1.3,1.6c8.9,0,17.8,0,26.7,0c3.1,0,3.1,0,2.5,3c-0.5,2.4-1.1,4.8-1.4,7.2c-0.2,1.5-1,1.6-2.2,1.6
			C294.4,58.2,288.2,58.2,282,58.2C282,58.2,282,58.2,282,58.2z"/>
		<path class="st3" d="M220.7,93.1c0.6-1,1.1-1.7,1.6-2.4c3.5-5.3,7.1-10.7,10.6-16c0.6-0.9,1.3-1.3,2.4-1.3c2.4,0.1,4.7,0.1,7.1,0
			c1.1,0,1.5,0.1,1.2,1.4c-2,9.7-3.9,19.3-5.9,29c-0.2,0.9-0.5,1.5-1.6,1.4c-1.8-0.1-3.6-0.1-5.4,0c-1.2,0.1-1.3-0.4-1.1-1.4
			c1.1-5.2,2.2-10.5,3.2-15.7c0.1-0.6,0.2-1.1,0.3-1.8c-0.8,0.1-1,0.7-1.3,1.1c-3.2,4.6-6.4,9.1-9.5,13.8c-0.9,1.3-1.8,1.9-3.4,1.9
			c-3-0.1-3,0-3.8-2.9c-1.2-4.4-2.5-8.8-3.7-13.2c-0.1-0.4-0.1-0.8-0.5-1.1c-1.2,5.9-2.5,11.7-3.6,17.6c-0.2,1.2-0.6,1.9-2.1,1.8
			c-1.7-0.2-3.4,0-5,0c-0.9,0-1.2-0.2-1-1.2c2.2-9.8,4.4-19.7,6.5-29.5c0.2-0.9,0.6-1.1,1.4-1.1c2.2,0,4.4,0.1,6.6,0
			c1.4-0.1,1.9,0.4,2.3,1.8C217.5,81,219.1,86.9,220.7,93.1z M233.3,85.8c0,0-0.1-0.1-0.1-0.1c0,0-0.1,0.1-0.1,0.1
			c0,0,0.1,0.1,0.1,0.1C233.2,85.8,233.3,85.8,233.3,85.8z"/>
		<path class="st3" d="M353.7,88.5c2.3,1.5,2.5,3.5,2.1,5.6c-0.3,1.3-0.5,2.6-0.8,3.9c-0.8,4.2-4.3,7.1-8.6,7.1
			c-7.9,0-15.8,0-23.7,0c-1.3,0-1.5-0.3-1.3-1.6c2-9.6,4-19.2,5.9-28.8c0.2-1.1,0.6-1.5,1.7-1.4c7.8,0,15.6,0,23.4,0
			c4.2,0,6.6,3.1,5.7,7.1c-0.1,0.6-0.3,1.2-0.4,1.9C357.5,85,356.6,87.3,353.7,88.5z M338.6,97.9C338.6,97.9,338.6,97.9,338.6,97.9
			c2.1,0,4.2,0,6.3,0c1.6,0,2.3-0.7,2.4-2.2c0-0.4,0.1-0.8,0.2-1.2c0.3-1.7,0-2.2-1.7-2.2c-3.4,0-6.8,0-10.3,0c-3.7,0-3.7,0-4.5,3.6
			c0,0.2-0.1,0.4-0.1,0.6c-0.4,1.1-0.1,1.5,1.1,1.5C334.3,97.8,336.5,97.9,338.6,97.9z M340.6,85.6c1.7,0,3.4,0,5.1,0
			c3.4,0,3.5-0.1,4.2-3.3c0.3-1.7,0.1-2-1.6-2c-3.4,0-6.7,0-10.1,0c-4,0-3.9,0.1-4.6,4c-0.2,1.2,0.2,1.4,1.2,1.4
			C336.7,85.5,338.6,85.6,340.6,85.6z"/>
		<path class="st3" d="M285.6,73.4c3.1,0,6.2,0,9.3,0c4,0,6.7,3.2,5.9,7.1c-1.2,6.1-2.5,12.1-3.8,18.2c-0.7,3.5-4.4,6.4-8.1,6.4
			c-6.5,0.1-12.9,0.1-19.4,0c-3.7,0-6.3-3.2-5.6-6.8c1.2-6.1,2.4-12.3,3.8-18.4c0.8-3.6,4.6-6.5,8.3-6.5
			C279.3,73.4,282.5,73.4,285.6,73.4z M280.8,97.6C280.8,97.6,280.8,97.6,280.8,97.6c2.3,0,4.6,0,6.9,0c0.9,0,1.4-0.3,1.5-1.2
			c0.9-4.6,1.9-9.1,2.8-13.7c0.3-1.3-0.1-1.9-1.5-1.8c-4.4,0-8.7,0-13.1,0c-1,0-1.6,0.4-1.8,1.4c-0.9,4.6-1.9,9.3-2.9,13.9
			c-0.2,1.1,0.2,1.5,1.3,1.5C276.4,97.5,278.6,97.6,280.8,97.6z"/>
		<path class="st3" d="M492.4,73.4c4.5,0,8.9,0,13.4,0c1.1,0,1.4,0.4,1.1,1.4c-0.1,0.3-0.2,0.6-0.3,0.9c-0.4,1.6-0.1,3.9-1.4,4.7
			c-1.2,0.8-3.3,0.3-4.9,0.3c-4.8,0-9.6,0.1-14.4,0c-1.3,0-1.8,0.3-2.1,1.6c-0.5,3.1-0.6,3.1,2.6,3.2c4.5,0,8.9,0.1,13.4,0
			c1.3,0,1.8,0.1,1.3,1.6c-0.5,1.4-0.7,2.9-1,4.3c-0.2,1.1-0.8,1.5-1.9,1.5c-5-0.1-10,0-15-0.1c-1.2,0-1.7,0.3-2,1.6
			c-0.6,3.4-0.7,3.4,2.9,3.4c5.5,0,11.1,0,16.6,0c1.2,0,1.5,0.3,1.2,1.5c-0.4,1.6-0.8,3.3-1,4.9c-0.1,0.8-0.4,1.2-1.3,1.2
			c-8.3,0-16.6,0-24.9,0c-2.2,0-3.5-1.7-3.1-3.7c1.9-8.9,3.8-17.8,5.6-26.7c0.2-1,0.6-1.3,1.7-1.3C483.4,73.4,487.9,73.4,492.4,73.4
			z"/>
		<path class="st2" d="M328.6,9.4c2.5,0,5.1,0,7.6,0c0.9,0,1.2,0.2,1,1.1c-0.7,3.2-1.5,6.5-2.1,9.7c-0.2,1-0.9,0.8-1.4,0.7
			c-1.2-0.1-1.5,0.4-1.7,1.4c-2.3,11.4-4.6,22.9-6.9,34.3c-0.2,1-0.5,1.5-1.7,1.5c-3.8-0.1-7.6,0-11.4,0c-0.9,0-1.3-0.1-1-1.2
			c2.5-11.5,5-23,7.5-34.4c0.1-0.7,0.8-1.5-0.6-1.7c-0.4-0.1-0.1-0.7,0-1c0.7-3.2,1.4-6.3,2.1-9.5c0.2-0.8,0.5-0.9,1.2-0.9
			C323.6,9.4,326.1,9.4,328.6,9.4C328.6,9.4,328.6,9.4,328.6,9.4z"/>
		<path class="st3" d="M434.5,105.1c-4.2,0-8.3,0-12.5,0c-2.1,0-3.3-1.5-2.9-3.5c1.8-8.8,3.6-17.6,5.3-26.4c0.3-1.4,0.7-2,2.2-1.8
			c1.7,0.1,3.5,0.1,5.2,0c1.1-0.1,1.4,0.1,1.2,1.4c-1.5,6.9-2.9,13.8-4.3,20.6c-0.1,0.3-0.1,0.6-0.2,0.9c-0.4,1.1,0.2,1.3,1.2,1.3
			c5.5,0,11,0,16.6,0c3.6,0,3.6,0,2.9,3.6c-0.8,4-0.8,4-4.9,4C441,105.1,437.8,105.1,434.5,105.1
			C434.5,105.1,434.5,105.1,434.5,105.1z"/>
		<path class="st3" d="M385.8,105.1c-2.6,0-5.3,0-7.9,0c-0.9,0-1.2-0.3-1-1.2c0.4-1.7,0.8-3.5,1.1-5.2c0.1-0.7,0.3-1,1-0.8
			c0.2,0.1,0.5,0.1,0.8,0.1c2.9,0,3.1-0.1,3.7-3.1c0.9-4.3,1.7-8.5,2.7-12.8c0.3-1.1,0.3-1.9-1.2-1.7c-0.5,0.1-0.9,0-1.4-0.2
			c-1-0.4-1.7-0.8-1.2-2.2c0.4-1.2,0.5-2.5,0.7-3.7c0.1-0.8,0.5-1.1,1.2-1.1c5,0,10.1,0,15.1,0c0.7,0,1,0.2,0.9,1
			c-0.4,1.7-0.7,3.5-1,5.3c-0.1,0.7-0.5,0.9-1.1,0.9c-1.2,0.1-2.8-0.6-3.6,0.4c-0.7,0.8-0.6,2.3-0.9,3.5c-0.8,4.1-1.6,8.1-2.5,12.2
			c-0.2,1,0.1,1.3,1.1,1.3c1.2,0,2.8-0.6,3.4,0.3c0.5,0.7-0.3,2.2-0.5,3.3c-0.6,3.6-0.6,3.6-4.2,3.6
			C389.3,105.1,387.5,105.1,385.8,105.1C385.8,105.1,385.8,105.1,385.8,105.1z"/>
		<path class="st3" d="M52,82.4c0.5,0.6,0.9,1.3,1.4,1.9c1,1.3,1.7,2.8,4,2.7c1.7,0,3.4,0.5,5-0.4c0.3-0.2,0.7-0.3,1-0.3
			c2.5,0,4.9,0,7.4-0.1c0.7,0,1.2,0.1,0.6,0.9c-0.4,0.7-0.8,1.3-1.3,2c-0.2,0.2-0.4,0.6-0.7,0.6c-2.7,0-5,1.8-7.8,1.2
			c-0.7-0.1-1.9-0.4-2.2,0.3c-0.3,0.8,0.8,1.4,1.3,2c0.4,0.5,0.9,0.9,1.3,1.4c-0.2,0.1-0.4,0.1-0.6,0.2c-1.4,0.1-2.8-0.3-4.2,0.6
			c-1,0.6-2.5,0.3-3.7-0.3c-1.6-0.8-3.2-0.8-4.9-0.9c-0.9,0-1.5-0.3-1.8-1.2c-0.2-0.6-0.7-1.1-0.9-1.7c-0.4-1.3-1.3-1.6-2.6-1.4
			c-1,0.1-1.6-0.2-2-1.1c3.6-0.8,6.9,0.3,10.2,1.7c-1.2-2.8-2.6-3.5-5.1-2.9c-1.2,0.3-2.4,0.5-3.4-0.6c-0.1-0.1-0.3-0.2-0.4-0.2
			c-2.5,0.2-5-0.8-7.5-0.1c-1.4,0.4-2.8,0.1-4.2-0.2c-1.9-0.4-3.6,1-5.6,0.6c-0.9-0.2-1.6-0.4-2-1.3c-0.1-0.3-0.2-0.5,0.2-0.8
			c0.3-0.2,1.3,0.1,0.8-0.7c-0.4-0.7-0.4-1.9-1.6-1.6c-1.6,0.3-2.3-0.6-2.9-1.8c-0.2-0.4-0.7-0.9-0.2-1.2c0.5-0.3,1.2-0.3,1.7,0.3
			c0.4,0.6,0.9,1.1,1.4,1.7c0-2.2,0-2.2,2.2-2.2c6.7,0,13.4,0,20-0.1c1.1,0,1.9,0.2,2.3,1.4c0.4,1.2,1.2,1.7,2.6,1.5
			C50.5,82.3,51.2,82.4,52,82.4z"/>
		<path class="st3" d="M53,25.1c-2.1,3.1-3.9,6.3-5.6,9.6c-1.2-0.6-2-0.3-2.6,1c-1.2,2.7-2.1,5.4-2.8,8.2c-0.3,1.1-0.7,1.5-1.7,1.3
			c-1.5-0.3-2.5,0.3-3,1.8c-0.5,1.6-1.5,2.1-3.3,2.1c-6.5-0.1-13.1,0.3-19.6-0.2c-4.6-0.3-9.1-0.5-13.7-0.5c-0.7,0-0.9-0.1-0.6-0.9
			c1.1-2.5,1.1-2.6,3.7-2.6c1.1,0,2.1,0,3.2,0c0.4,0,0.9,0,1-0.5c0.3-1.5,1.4-1.5,2.4-1.3c1.9,0.5,3.2-0.1,4-1.9
			c0.2-0.5,0.7-0.7,1.3-0.7c0.3,0,0.7,0.1,0.9-0.1c1.5-1,3-0.3,4.5,0c-0.4,1.3-0.7,2.6-1.2,3.8c-0.4,0.9,0,1.1,0.8,1.1
			c4.8,0,9.7,0,14.5,0.1c0.7,0,1.1-0.2,1.3-0.9c0.6-1.8,1.2-3.5,1.3-5.3c0.1-0.8-0.2-1.2-1-1.2c-1,0-2-0.1-3-0.1
			c-1.1,0-1.1-0.5-0.7-1.3c0.5-1,1.2-1.7,2.5-1.5c1.3,0.2,2.1-0.3,2.9-1.5c1.2-2.1,2.7-4,4.1-6c0.5-0.7,1.2-0.5,1.9-0.5
			c1.7,0.1,3.2,0.1,4.6-1.4C50.1,24.6,51.6,25,53,25.1z"/>
		<path class="st3" d="M153.5,60.2c-0.1-0.7,0.2-1.5-0.1-2.3c-1.1,0.4-1.3,1.4-1.7,2.2c-0.4,0.7-0.9,2-1.9,1.4
			c-0.8-0.5,0-1.5,0.4-2.2c0.5-0.8,1.7-1.6,1.4-2.5c-0.4-0.8-1.7-0.1-2.6-0.3c-3-0.9-5.9,0.7-9,0.4c-1.6-0.2-3.2,0-5.2,0
			c1.3-1.3,2.3-2.5,4-2.4c2.3,0.2,4.3-0.2,5.9-2.1c0.7-0.9,1.9-1.2,3.1-1.2c1.8-0.1,3.6,0.1,5.3-0.5c1.1-0.3,1.3,0.3,1.3,1.3
			c0,0.7-0.5,1.9,0.4,2.1c1.2,0.3,2.7,0.6,3.6-0.4c2-2.2,4.5-2.8,7.4-2.7c3.8,0.2,7.5,0,11.5,0c-0.9,1.8-1.7,3.4-2.5,5.1
			c-0.2,0.4-0.5,0.6-1,0.6c-1.4,0.1-2.8,0.5-4.1,0.3c-3.3-0.4-5.2,1.6-7.1,3.8c-0.5,0.7-2.9,1.1-3.6,0.7c-0.3-0.1-0.3-0.4-0.3-0.7
			c0-0.4,0-0.8,0-1.3c0-2.9-1-3.6-3.9-3c-0.9,0.2-0.5,0.7-0.6,1.2C154.2,58.6,154.9,59.7,153.5,60.2z M157.3,55.2
			c-1-0.4-1.8-0.3-2.6-0.1c-0.2,0-0.3,0.3-0.4,0.5c0,0.1,0.1,0.3,0.2,0.3C155.5,55.9,156.4,56.2,157.3,55.2z"/>
		<path class="st3" d="M68.8,10c-1.4,1.4-3.4,1.9-4.9,3.2c-2.3,1.9-4.2,4.2-6.3,6.3c-0.3-0.8-1-0.5-1.5-0.5
			c-6.5,0-12.9,0.1-19.4,0.1c-0.7,0-1.4,0.2-2.1-0.2c1-1.8,2.1-3.1,4.6-2.9c3,0.2,6-0.2,9-0.3c1.1,0,1.7-0.6,2.4-1.6
			c-1.5,0-2.9,0-4.4,0c0.7-1.3,1.5-2.1,2.8-1.9c1.9,0.2,3.5-0.3,4.6-2c0.3-0.4,0.7-0.8,1.3-0.9c0.8-0.1,1.6,0.3,2.1-1
			c0.3-0.7,1.8-0.2,2.8-0.2c0.7,0,1.7-0.5,1.4,1c-0.1,0.5,0.7,0.5,1.1,0.5c1.6,0,3.3,0,4.9,0C67.7,9.8,68.3,9.6,68.8,10z"/>
		<path class="st3" d="M128.1,100.5c2-1.5,2-1.5,0.2-3.4c-0.6-0.7-1.3-1.3-2.1-2.2c2.8,0.1,5.3-0.6,7.3,1.4
			c-0.2,0.4-0.9,0.6-0.4,1.2c0.8,0.8,1,2.1,2.5,2.1c2.8-0.1,5.7,0,8.5-0.1c1.1,0,1.9,0.2,2.6,1.1c0.8,1,1.7,1.8,3.2,1.5
			c0.6-0.1,1.1,0.3,1.5,0.8c0.6,0.7,1.2,1.3,1.8,2c0.4,0.5,1.5,0.8,1,1.5c-0.5,0.8-1.2,1.7-2.3,1.7c-1.8,0.1-3.6,0-5.4,0
			c-0.7,0-1-0.5-1.3-1c-1.4-2.5-3.7-3.2-6.3-3.2c-0.6,0-1.3,0.1-1.8-0.4c-1.6-1.8-3.7-2-5.9-1.8C130,101.9,128.8,101.7,128.1,100.5z
			"/>
		<path class="st3" d="M23,6.9C23.7,5,24.6,4,26.8,4c3.8,0.1,7.5,1.2,11.3,0.8C39.1,4.8,40,4.9,40.7,4c0.5-0.7,1.6-0.8,2.4-1
			c4.7-0.9,9.5-1.1,14.3-1.1c1.4,0,1.3,0.4,0.8,1.4c-1,2.2-2.3,3.2-4.9,3c-3.7-0.3-7.4,0-11-0.1c-1.3,0-2.6,0.1-4-0.5
			c-1-0.4-2.3-0.6-3.1,0.7c-0.3,0.4-0.7,0.5-1.1,0.5C30.4,6.9,26.8,6.9,23,6.9z"/>
		<path class="st3" d="M61.8,106.8c-7.5,0-14.6,0-21.7,0c-0.7,0-1.1-0.2-1.4-0.8c-0.2-0.3-0.4-0.6-0.5-1c-0.4-1-1.8-1.9-1.3-2.8
			c0.4-0.7,1.9-0.2,3-0.2c5.3,0,10.5,0,15.8,0c1,0,1.8,0.3,2.5,1.1C59.2,104.3,60.4,105.4,61.8,106.8z"/>
		<path class="st3" d="M138.7,10.1c0.9-1.1,2.3-1.2,3.1-2.5c-0.4-0.1-0.7-0.2-1-0.3c-2.5-0.3-2.2-0.2-1.4-2.6c1-3,2.7-3.7,5.6-3.4
			c1.5,0.1,2.7,0.7,3.9,1.4c0.3,0.2,0.5,0.4,0.4,0.8c-0.3,1.8-0.3,3.7-2.4,4.5c-0.5,0.2-0.7,1-1.1,1.5c-0.9,1.3-2.1,1.8-3.5,1
			C141.1,9.9,139.9,10.6,138.7,10.1z"/>
		<path class="st3" d="M139.1,91.9c1.1-1.2,2.2-2.5,3.3-3.7c1.2,0.8,2.2,0.8,3.1-0.5c0.6-0.9,1.5-1.2,2.6-1.1
			c1.5,0.1,2.9-0.2,4.4,0.3c0.8,0.3,1.2-0.4,1.5-0.8c1.3-2.2,3.2-2.5,5.5-2.3c1.7,0.1,3.5,0,5.2,0c0,1.2-1.6,2.1-0.5,3.4
			c0.1,0.1-0.4,0.2-0.6,0.3c-2.1,0.7-4.3,0.4-6.4,0.4c-1.6,0-3.3,0.6-4.9-0.3c-0.1,0-0.3,0-0.4,0.1c-1.7,2.2-4.1,1.5-6.3,1.4
			c-1.1,0-1.9,0.2-2.8,1C141.8,91,140.9,92.3,139.1,91.9z"/>
		<path class="st3" d="M41.7,27.2c-1.5,1.9-3.1,3.2-5.6,3c-1.3-0.1-2.1,0.6-2.7,1.6c-0.8,1.4-1.9,1.7-3.4,1.7c-2.2-0.1-4.4,0-6.9,0
			c1.5-1.8,2.7-3.3,3.9-4.7c0.2-0.2,0.5-0.4,0.8-0.4c4.5,0,9-0.7,13.4-1.2C41.4,27,41.5,27.1,41.7,27.2z"/>
		<path class="st3" d="M157.3,0.9c0.9,0,1.8,0.1,2.6,0c1.2-0.2,1.7,0.5,2,1.5c0.5,1.6-0.7,2.7-1.2,3.9c-0.3,0.8-1.2,0.3-1.9,0.4
			c-1.4,0-2.8,0-4.3,0c-0.7,0-1.2-0.1-1.6-0.7c-0.4-0.6-1.6-1.1-1.4-1.8c0.3-1.1,1-2.4,1.9-3C154.6,0.4,156.1,1.1,157.3,0.9z"/>
		<path class="st3" d="M45.9,76.6c-1.5,0.3-2.2-0.1-2.3-1.4c-0.1-0.9-0.7-1-1.4-1c-2.1,0.1-4.2,0.1-6.3,0.2
			c-1.1,0.1-1.6-0.3-1.7-1.4c-0.5-2.9-0.5-2.9,2.3-2.8c0.7,0,1.4,0,2,0c4.3,0,4.3,0,6.5,3.5C45.5,74.5,45.2,75.7,45.9,76.6z"/>
		<path class="st3" d="M67.6,40.2c-0.6-0.5-1.3-0.4-2-0.4c-1.4,0-2.7-0.3-3.7-1.4C61.5,37.9,61,38,60.5,38c-2.8,0-5.6,0-8.4,0
			c0.7-2.8,0.8-2.9,3.4-2.9c0.8,0,1.6,0.1,2.4,0c1.2-0.1,2.2,0.2,2.9,1.1c0.9,1.1,2.3,1.3,3.5,1.6c2.8,0.6,5.6,1,8.4,1.4
			c0.6,0.1,1,0.1,1.5-0.3c-0.3,0.7-0.8,1.1-1.6,1c-1.4-0.2-2.9,0.8-4.3-0.1C68.2,39.9,67.9,40.1,67.6,40.2z"/>
		<path class="st3" d="M132.1,28.1c-0.3,0.1-0.7,0.2-0.9-0.1c-0.2-0.2,0.2-0.4,0.3-0.6c1-0.9,1.5-2.4,3.2-2.5c0.3,0,0.5-0.4,0.8-0.7
			c1.6-1.6,3-3.4,5.1-4.3c0.8-0.3,0.2-0.8,0-1.1c-1.5-1.5-2.9-3.2-4.6-4.5c-0.7-0.5-1.3-1.1-1.9-1.6c1.2-0.8,2.4-0.4,3.7-0.2
			c0.9,0.2,0.9,0.9,0.4,1.4c-1,1.3-0.1,1.5,0.9,1.6c1.7,0.2,3.5-0.1,5.2,0.4c0.1,0.4-0.2,0.6-0.3,0.9c-1.2,0.7-2.4,1.4-2.1,3.1
			c0.1,0.4-0.1,0.5-0.3,0.6c-2.2,1.5-3.6,3.8-5.7,5.4c-0.9,0.6-1.7,1.4-2.9,1.5C132.5,27.5,132.2,27.7,132.1,28.1z"/>
		<path class="st3" d="M19.2,82.8c-2.6,0-5.1,0.1-7.5,0c-1.9-0.1-0.9-1.7-1.2-2.5c-0.3-0.9,0.7-0.6,1.1-0.6c1.5-0.1,3,0.1,4.5-0.1
			c1.5-0.2,2.2,0.5,2.5,1.8C18.8,81.7,19,82.1,19.2,82.8z"/>
		<path class="st3" d="M46.9,35.9c-1.6,4.1-2.9,8.4-3.7,12.8c-0.9-0.1-0.7-0.8-0.6-1.3C43.5,43.4,44.7,39.4,46.9,35.9z"/>
		<path class="st3" d="M137.2,105.1c2.1-0.3,3.7-0.5,4.9,1.4c0.5,0.8,0.2,1.1-0.5,1.2c-1.2,0.3-2.3,0.4-3-0.9
			C138.3,106.2,137.8,105.8,137.2,105.1z"/>
		<path class="st3" d="M117.3,28.2c1.7,0.6,3.6,0.2,5.4,0.5c-0.1,2-1.2,2.4-2.9,2.1c-0.3-0.9-1.1-1.2-1.8-1.7
			C117.6,29,117,28.9,117.3,28.2z"/>
		<path class="st3" d="M143.8,86.2c1-1.5,1.9-3,2.9-4.5c0.8,0.1,1.5,0.2,2.7,0.3C147.7,84,145.9,85.3,143.8,86.2z"/>
		<path class="st3" d="M45.5,67c0.7,2.3,1.4,4.6,2.1,6.9c-1.5-1.4-2-3.4-2.4-5.3C45,68.1,45,67.5,45.5,67z"/>
		<path class="st3" d="M152.1,10.1c-0.5-0.1-1.2,0-1.1-0.9c0.1-1,0.6-1,1.4-1c0.6,0,1,0.1,0.9,0.9C153.2,9.8,153,10.4,152.1,10.1z"
			/>
		<path class="st3" d="M132.9,12.4c0.6,0.9,0.4,1.4-0.8,1.2c-0.7-0.1-1.5,0.1-2.1-0.5c0.5-1,1.5-0.6,2.2-0.9
			C132.4,12.3,132.6,12.4,132.9,12.4z"/>
		<path class="st3" d="M57.1,19.7c-0.3,1.2-1.3,1.9-2.1,2.7c-0.3-0.2-1.1,0-0.5-0.7C55.2,21,55.8,19.9,57.1,19.7z"/>
		<path class="st4" d="M233.3,85.8c0,0-0.1,0.1-0.1,0.1c0,0-0.1-0.1-0.1-0.1c0,0,0.1-0.1,0.1-0.1C233.3,85.7,233.3,85.7,233.3,85.8z
			"/>
	</g>
</g>
</svg>
